<?xml version="1.0" standalone="no"?>
<!DOCTYPE svg PUBLIC "-//W3C//DTD SVG 20010904//EN"
 "http://www.w3.org/TR/2001/REC-SVG-20010904/DTD/svg10.dtd">
<svg version="1.0" xmlns="http://www.w3.org/2000/svg"
 width="1200.000000pt" height="1200.000000pt" viewBox="0 0 1200.000000 1200.000000"
 preserveAspectRatio="xMidYMid meet">

<g transform="translate(0.000000,1200.000000) scale(0.100000,-0.100000)"
fill="#000000" stroke="none">
<path d="M0 6000 l0 -6000 6000 0 6000 0 0 6000 0 6000 -6000 0 -6000 0 0
-6000z m11680 -5 l0 -5675 -5675 0 -5675 0 0 5675 0 5675 5675 0 5675 0 0
-5675z"/>
<path d="M7068 10750 c-405 -43 -816 -228 -1213 -546 -139 -112 -413 -384
-537 -534 -126 -152 -241 -307 -342 -460 -164 -247 -162 -246 109 26 306 306
465 441 739 624 293 196 625 338 892 381 105 17 360 17 454 0 345 -62 678
-290 877 -600 123 -190 221 -477 259 -750 21 -156 29 -518 15 -696 -34 -428
-138 -924 -290 -1380 -46 -136 -48 -147 -25 -120 33 40 141 261 202 415 197
497 339 1060 409 1622 14 110 18 215 17 453 0 275 -2 325 -22 440 -76 443
-232 728 -495 907 -116 79 -385 172 -588 203 -130 20 -347 27 -461 15z"/>
<path d="M5537 10091 c-308 -247 -655 -601 -954 -971 -432 -537 -928 -1347
-1254 -2050 -82 -177 -86 -189 -140 -364 -153 -495 -264 -984 -325 -1436 -25
-184 -30 -655 -10 -816 69 -538 306 -864 711 -974 113 -31 390 -39 525 -16 96
17 218 45 233 53 4 3 -37 27 -92 54 -400 196 -671 689 -743 1354 -22 201 -16
680 10 920 94 838 318 1583 703 2340 343 676 809 1328 1348 1887 52 54 92 98
90 98 -2 0 -48 -36 -102 -79z"/>
<path d="M8020 6430 l0 -150 230 0 230 0 2 -737 3 -738 155 0 155 0 3 738 2
737 230 0 230 0 0 150 0 150 -620 0 -620 0 0 -150z"/>
<path d="M3990 5681 l0 -881 175 0 175 0 0 334 0 334 278 5 c300 5 347 11 446
65 65 35 146 110 184 170 98 153 107 413 22 583 -61 120 -193 221 -325 250
-29 6 -243 13 -502 16 l-453 5 0 -881z m787 566 c65 -17 116 -51 151 -101 23
-34 27 -51 30 -125 4 -83 3 -88 -30 -136 -50 -75 -103 -103 -218 -115 -52 -5
-157 -10 -232 -10 l-138 0 0 250 0 250 193 0 c129 0 210 -4 244 -13z"/>
<path d="M5380 6410 l0 -150 235 0 235 0 0 -740 0 -740 155 0 155 0 0 740 0
740 235 0 236 0 -3 148 -3 147 -622 3 -623 2 0 -150z"/>
<path d="M7130 5329 l0 -552 90 7 c50 3 131 9 180 12 l90 7 0 366 0 367 -173
172 c-95 95 -176 172 -180 172 -4 0 -7 -248 -7 -551z"/>
<path d="M7012 5668 c-7 -9 -34 -60 -61 -115 -191 -391 -600 -850 -1156 -1299
-559 -450 -973 -697 -1401 -834 -219 -70 -319 -85 -554 -85 -184 0 -214 2
-295 24 -154 41 -254 87 -375 174 -53 38 -52 37 30 -47 219 -224 463 -365 752
-434 104 -24 130 -26 333 -27 255 0 355 15 580 89 333 110 807 375 1210 676
246 184 510 433 668 630 89 110 215 299 256 381 l31 64 -2 409 c-3 332 -5 406
-16 394z"/>
<path d="M6205 2850 c-70 -11 -123 -27 -174 -54 l-45 -23 -60 28 c-34 16 -85
33 -115 39 -35 6 -610 10 -1662 10 l-1609 0 0 -65 0 -65 1628 -2 1627 -3 57
-26 c34 -16 59 -35 63 -48 5 -18 14 -21 64 -21 49 0 61 4 82 26 13 14 42 36
64 47 l40 22 1600 3 c1255 2 1601 5 1607 15 9 14 11 89 2 111 -6 15 -152 16
-1563 15 -856 -1 -1578 -5 -1606 -9z"/>
<path d="M2540 2414 l0 -206 1568 3 c1759 4 1616 10 1737 -70 l60 -40 3 191 2
192 -32 33 c-18 19 -62 49 -98 66 l-65 32 -1587 3 -1588 2 0 -206z"/>
<path d="M6183 2605 c-61 -18 -125 -59 -162 -100 l-31 -36 0 -202 0 -201 53
51 c37 36 71 57 117 74 l65 24 1578 -4 1577 -3 0 206 0 206 -1577 -1 c-1276 0
-1586 -3 -1620 -14z"/>
<path d="M5017 1750 c-8 -11 -12 -32 -9 -46 4 -23 9 -25 46 -22 37 3 41 6 44
33 6 50 -53 75 -81 35z"/>
<path d="M6296 1754 c-3 -9 -6 -49 -6 -89 l0 -73 -37 19 c-102 52 -222 -7
-239 -118 -8 -58 9 -129 39 -162 49 -53 143 -67 210 -31 l37 20 0 -20 c0 -17
7 -20 40 -20 l40 0 0 245 0 245 -39 0 c-26 0 -41 -5 -45 -16z m-72 -208 c70
-29 87 -102 38 -157 -23 -26 -36 -32 -70 -32 -49 0 -76 20 -92 68 -15 47 8
101 52 120 41 18 33 17 72 1z"/>
<path d="M4798 1713 c-26 -4 -28 -8 -28 -49 0 -42 -1 -44 -30 -44 -28 0 -30
-3 -30 -35 0 -32 3 -35 29 -35 l29 0 4 -105 c3 -99 5 -106 31 -132 24 -24 35
-28 86 -28 33 0 62 3 65 6 3 3 1 20 -5 37 -9 27 -16 32 -43 32 -48 0 -56 14
-56 107 l0 83 50 0 50 0 0 34 c0 34 -1 35 -47 38 l-48 3 -3 48 c-2 29 -8 46
-15 46 -7 -1 -24 -4 -39 -6z"/>
<path d="M5233 1713 c-18 -3 -22 -12 -25 -46 -3 -39 -5 -42 -35 -45 -30 -3
-33 -6 -33 -38 0 -32 2 -34 35 -34 l35 0 0 -102 c0 -109 9 -132 57 -157 23
-12 75 -14 109 -5 19 5 21 9 11 39 -9 31 -14 34 -51 37 l-41 3 -3 93 -3 92 46
0 c45 0 45 0 45 35 0 35 0 35 -45 35 l-45 0 0 50 c0 53 -1 54 -57 43z"/>
<path d="M4427 1611 c-32 -16 -39 -17 -44 -5 -3 9 -20 14 -44 14 l-39 0 0
-240 0 -240 45 0 45 0 0 84 0 85 37 -16 c49 -20 140 -14 176 12 39 29 67 92
67 151 -1 129 -131 212 -243 155z m134 -90 c62 -62 19 -161 -71 -161 -63 0
-98 42 -91 110 8 77 105 107 162 51z"/>
<path d="M5028 1623 c-16 -4 -18 -21 -18 -174 l0 -169 40 0 40 0 0 169 c0 188
-1 190 -62 174z"/>
<path d="M5704 1616 c-101 -44 -127 -212 -44 -291 61 -58 195 -64 256 -11 l25
21 -24 23 c-23 21 -25 22 -60 7 -46 -19 -80 -19 -116 0 -29 14 -47 43 -35 54
3 3 62 6 131 6 l125 0 -5 57 c-6 67 -31 108 -81 132 -41 19 -129 20 -172 2z
m151 -81 c14 -13 25 -29 25 -35 0 -6 -34 -10 -90 -10 -49 0 -90 3 -90 6 0 16
24 46 43 54 42 17 87 11 112 -15z"/>
<path d="M7481 1610 c-52 -24 -51 -24 -51 -5 0 10 -10 15 -34 15 l-34 0 -3
-97 c-3 -54 -2 -129 1 -168 l5 -70 38 -3 37 -3 0 101 c0 105 13 151 45 164 31
12 73 6 96 -13 22 -18 24 -27 27 -135 l4 -116 39 0 39 0 0 118 c0 92 -4 124
-18 151 -36 73 -113 97 -191 61z"/>
<path d="M6450 1505 c0 -96 3 -122 20 -155 35 -69 118 -90 193 -50 l39 21 5
-21 c4 -15 13 -20 39 -20 l34 0 0 170 0 170 -40 0 -40 0 0 -95 c0 -134 -18
-165 -95 -165 -24 0 -39 7 -54 26 -18 23 -21 41 -21 130 l0 104 -40 0 -40 0 0
-115z"/>
<path d="M6955 1583 c8 -21 41 -98 72 -171 l57 -133 45 3 44 3 69 160 c37 88
68 163 68 168 0 4 -20 7 -44 7 l-43 0 -43 -112 c-24 -62 -46 -116 -49 -121 -4
-4 -27 46 -52 110 l-46 118 -47 3 -47 3 16 -38z"/>
<path d="M5466 1367 c-22 -16 -25 -65 -5 -78 20 -12 53 -11 67 3 7 7 12 25 12
40 0 21 -6 31 -26 38 -31 12 -27 13 -48 -3z"/>
<path d="M6890 1372 c-21 -7 -30 -23 -30 -54 0 -22 6 -29 27 -34 35 -9 58 7
58 41 0 30 -30 56 -55 47z"/>
</g>
</svg>
